<?xml version="1.0" standalone="no"?>
<!DOCTYPE svg PUBLIC "-//W3C//DTD SVG 20010904//EN"
 "http://www.w3.org/TR/2001/REC-SVG-20010904/DTD/svg10.dtd">
<svg version="1.0" xmlns="http://www.w3.org/2000/svg"
 width="300.000000pt" height="300.000000pt" viewBox="0 0 300.000000 300.000000"
 preserveAspectRatio="xMidYMid meet">
<metadata>
Created by potrace 1.10, written by Peter Selinger 2001-2011
</metadata>
<g transform="translate(0.000000,300.000000) scale(0.100000,-0.100000)"
fill="#000000" stroke="none">
<path d="M1282 2686 c-41 -10 -102 -57 -102 -78 0 -21 22 -48 38 -48 10 0 38
9 62 21 37 18 49 20 80 10 23 -7 41 -20 48 -36 17 -36 16 -37 -20 -35 -68 4
-87 -1 -117 -29 -38 -35 -43 -89 -11 -121 24 -24 106 -28 136 -5 27 20 42 19
79 -9 29 -23 34 -24 54 -10 26 19 26 30 -1 74 -17 27 -22 51 -23 107 0 57 -4
77 -21 100 -43 58 -118 79 -202 59z m138 -41 c52 -27 76 -109 49 -167 -9 -21
-6 -29 25 -62 20 -20 36 -42 36 -47 0 -20 -24 -7 -55 29 -31 35 -34 36 -52 20
-48 -44 -133 -53 -156 -16 -17 26 7 67 50 84 33 14 40 14 77 0 45 -18 56 -11
56 36 0 106 -118 141 -222 66 -22 -16 -35 -3 -17 18 43 52 146 71 209 39z"/>
<path d="M1312 2458 c-15 -8 -22 -19 -20 -32 2 -17 10 -21 41 -20 21 1 46 9
58 20 l21 19 -29 12 c-34 15 -42 15 -71 1z"/>
<path d="M1754 2660 c-11 -4 -28 -20 -38 -35 -15 -22 -24 -26 -52 -23 -26 3
-39 -1 -56 -19 -22 -23 -22 -24 -4 -54 16 -28 17 -36 5 -71 -19 -58 -5 -73 62
-73 41 0 61 -6 83 -22 16 -13 35 -23 42 -23 20 0 47 47 41 71 -4 13 4 31 24
53 16 19 29 40 29 47 0 8 -16 27 -35 42 -19 15 -35 36 -35 47 0 10 -10 30 -22
44 -18 19 -28 23 -44 16z m35 -32 c-1 -7 -1 -30 0 -51 1 -38 4 -40 54 -51 38
-9 34 -23 -12 -42 l-38 -15 9 -51 c5 -27 7 -53 3 -56 -3 -3 -23 13 -43 37
l-38 44 -41 -22 c-69 -35 -82 -24 -38 33 31 41 31 50 -2 74 -38 28 -26 54 19
41 48 -13 51 -12 76 31 21 37 55 55 51 28z"/>
<path d="M2285 2646 c-21 -21 -28 -39 -27 -76 0 -3 3 -15 6 -27 6 -19 3 -21
-43 -25 -46 -3 -48 -2 -39 16 15 27 -7 92 -38 112 -23 16 -26 15 -44 -1 -11
-10 -20 -26 -20 -36 0 -25 20 -70 43 -95 18 -21 18 -22 -9 -43 l-27 -21 -16
31 c-22 41 -66 67 -88 53 -37 -23 -39 -42 -8 -74 34 -36 69 -47 90 -30 10 8
15 9 15 2 0 -6 -4 -13 -9 -16 -5 -3 -12 -22 -15 -41 -7 -38 -20 -45 -34 -19
-5 8 -27 18 -49 21 -36 5 -43 2 -58 -20 -20 -31 -14 -44 31 -63 34 -14 57 -11
86 14 15 13 18 11 23 -14 4 -16 11 -42 16 -58 5 -16 9 -46 9 -68 0 -36 -2 -38
-25 -32 -31 8 -84 -16 -124 -57 -36 -35 -36 -36 -16 56 l15 70 -26 23 c-17 15
-38 22 -65 22 -77 0 -82 -8 -125 -197 -17 -75 -32 -123 -40 -123 -7 0 -20 44
-33 123 -27 154 -44 191 -89 195 -19 2 -47 -1 -64 -7 -23 -8 -35 -7 -53 5 -28
18 -78 19 -215 5 -83 -9 -98 -13 -117 -36 -20 -22 -23 -38 -23 -106 0 -45 -4
-79 -10 -79 -5 0 -18 17 -29 38 -55 107 -192 173 -334 162 -45 -4 -86 -14
-101 -24 l-26 -16 0 -318 c0 -397 -4 -387 152 -371 146 15 243 71 317 183 l26
40 5 -83 c5 -73 9 -86 30 -104 23 -18 35 -19 169 -14 156 7 183 16 195 62 7
29 -9 101 -25 111 -6 3 -47 6 -90 6 -76 -1 -79 0 -85 24 -3 13 -3 35 0 48 5
19 14 24 53 29 56 6 82 34 83 88 0 45 -33 79 -77 79 -53 0 -63 8 -63 51 0 33
4 41 26 49 14 6 41 10 59 10 19 0 46 5 60 12 14 6 28 9 30 6 3 -3 17 -63 30
-134 13 -71 27 -140 30 -154 3 -14 12 -59 20 -102 32 -177 45 -193 147 -186
87 6 94 18 147 231 25 97 48 177 53 177 4 0 14 -16 22 -35 15 -35 47 -61 146
-118 43 -25 55 -37 55 -57 0 -38 -30 -36 -89 4 -29 20 -61 36 -71 36 -30 0
-82 -38 -95 -70 -11 -27 -10 -34 15 -69 25 -37 93 -91 114 -91 5 0 11 -6 14
-13 3 -9 -5 -13 -27 -13 -124 -1 -145 -4 -170 -26 -25 -22 -26 -29 -31 -153
-3 -71 -5 -134 -5 -140 1 -5 3 -86 5 -179 2 -93 6 -179 9 -191 14 -54 145 -71
289 -39 199 45 279 221 159 347 l-37 38 23 43 c62 116 24 215 -108 278 -27 12
-30 17 -15 18 133 10 235 117 220 230 -10 76 -50 123 -151 176 -67 35 -84 52
-84 85 0 55 11 62 33 19 26 -53 57 -74 97 -65 37 8 88 57 97 93 6 28 38 75 86
126 39 43 67 99 67 137 0 28 2 31 23 24 61 -20 85 -18 112 10 26 25 26 27 9
46 -24 26 -85 26 -110 -2 l-19 -21 -17 22 c-10 12 -18 28 -18 34 0 14 -56 69
-86 84 l-21 11 24 50 c27 54 25 84 -8 101 -15 9 -24 6 -44 -14z m34 -60 c-6
-26 -17 -45 -23 -43 -18 6 -18 32 -1 73 22 54 40 33 24 -30z m-175 20 c18 -39
21 -72 6 -81 -11 -7 -29 32 -37 83 -7 42 10 41 31 -2z m-114 -116 c27 -22 32
-31 23 -41 -9 -9 -18 -6 -42 12 -16 13 -30 32 -30 42 -1 24 8 21 49 -13z m294
-24 c76 -44 108 -144 70 -219 -9 -18 -35 -53 -58 -79 -22 -26 -50 -58 -61 -73
l-20 -25 -69 17 -69 18 -3 45 c-2 25 -11 75 -20 111 -12 52 -13 75 -5 106 29
108 140 155 235 99z m249 -93 c14 -14 -17 -33 -54 -33 -50 0 -55 27 -6 33 17
2 37 5 43 5 6 1 14 -1 17 -5z m-556 -36 c3 -3 2 -11 -2 -17 -5 -8 -20 -9 -44
-5 -45 8 -53 14 -45 27 6 10 80 6 91 -5z m-587 -157 c0 -58 -14 -70 -82 -70
-24 0 -59 -3 -79 -6 l-37 -6 4 -81 3 -81 68 -1 68 0 3 -40 c4 -50 -15 -65 -85
-65 l-53 0 0 -81 0 -81 95 3 c52 2 97 0 100 -3 8 -8 12 -87 5 -97 -3 -5 -77
-10 -165 -12 l-160 -4 -3 323 c-2 253 0 324 10 327 22 8 169 22 241 24 l67 1
0 -50z m189 -187 c23 -126 45 -235 48 -243 5 -14 95 341 109 428 l6 42 54 0
c29 0 56 -5 59 -10 4 -6 -5 -50 -19 -98 -14 -48 -35 -127 -46 -177 -32 -147
-87 -356 -97 -366 -4 -4 -38 -11 -75 -15 -65 -6 -67 -6 -72 17 -27 115 -105
525 -119 619 -2 14 32 26 83 29 25 1 26 0 69 -226z m-727 173 c105 -50 160
-149 162 -291 0 -102 -21 -165 -78 -231 -60 -68 -136 -102 -253 -113 -48 -4
-93 -4 -98 0 -7 5 -12 125 -14 333 l-3 325 39 4 c93 11 187 1 245 -27z m1170
-62 c4 -3 -5 -22 -18 -41 -29 -43 -31 -92 -4 -125 10 -14 50 -41 87 -61 139
-73 175 -158 108 -259 -51 -77 -161 -100 -260 -54 -50 23 -115 85 -115 110 0
7 18 26 41 40 l41 28 32 -35 c54 -59 139 -68 165 -18 13 23 2 58 -25 82 -11 9
-52 33 -91 53 -41 20 -80 48 -90 63 -25 38 -24 114 3 150 37 50 107 87 126 67z
m143 -36 c55 -13 75 -29 43 -36 -24 -4 -141 33 -146 47 -3 10 2 12 19 8 13 -3
51 -12 84 -19z m25 -55 c11 -3 9 -9 -10 -24 -31 -23 -69 -21 -84 6 -6 11 -15
23 -20 26 -5 4 -6 11 -2 17 5 8 20 5 116 -25z m-147 -564 c123 -41 154 -180
58 -261 l-39 -32 38 -17 c46 -21 89 -75 97 -122 12 -78 -48 -161 -145 -197
-46 -17 -73 -20 -176 -18 l-121 3 -3 324 c-2 253 1 327 10 333 18 13 236 3
281 -13z"/>
<path d="M2183 2445 c-37 -16 -65 -65 -66 -115 -1 -19 7 -74 17 -121 l18 -86
51 -13 c43 -11 51 -11 58 3 5 8 28 39 52 69 59 71 67 89 67 142 0 52 -34 100
-87 122 -40 17 -69 17 -110 -1z m114 -37 c23 -11 53 -64 53 -92 0 -22 -12 -20
-33 4 -10 12 -29 20 -49 20 -18 0 -40 5 -48 10 -10 6 -22 4 -38 -6 -13 -9 -26
-13 -30 -10 -13 14 15 60 48 77 34 19 54 18 97 -3z m-72 -98 c3 -11 3 -24 0
-30 -3 -5 1 -10 9 -10 9 0 16 6 16 14 0 7 7 19 16 26 12 11 18 11 30 -2 13
-12 14 -20 5 -37 -7 -11 -18 -21 -26 -21 -9 0 -19 -22 -27 -62 -17 -75 -40
-93 -27 -21 5 26 12 56 15 66 3 9 1 17 -4 17 -5 0 -15 -30 -22 -66 -15 -80
-32 -72 -19 9 8 46 6 62 -5 79 -11 15 -12 26 -5 40 13 24 36 23 44 -2z"/>
<path d="M1771 1933 c0 -6 -4 -19 -8 -29 -4 -12 -3 -15 5 -10 8 5 12 -1 13
-16 0 -22 1 -22 8 -3 5 11 5 22 1 25 -4 3 -10 14 -13 25 -2 11 -5 15 -6 8z"/>
<path d="M643 2060 c0 -47 2 -66 4 -42 2 23 2 61 0 85 -2 23 -4 4 -4 -43z"/>
<path d="M740 1860 c0 -239 -4 -231 86 -188 95 44 134 150 99 263 -26 80 -88
132 -162 134 l-23 1 0 -210z m92 153 c44 -26 68 -80 68 -155 0 -73 -21 -117
-72 -148 -30 -18 -34 -18 -45 -4 -12 16 -19 296 -8 315 9 13 23 11 57 -8z"/>
<path d="M660 1908 c0 -21 5 -38 10 -38 13 0 13 40 0 60 -7 11 -10 5 -10 -22z"/>
<path d="M872 1601 c-29 -15 -55 -31 -59 -34 -13 -14 73 25 97 43 33 26 26 24
-38 -9z"/>
<path d="M1909 1655 c10 -22 37 -47 61 -59 8 -4 5 2 -8 13 -13 11 -32 30 -43
43 -17 19 -19 20 -10 3z"/>
<path d="M2050 1404 c25 -7 55 -25 68 -39 24 -28 30 -22 8 7 -15 21 -77 48
-103 47 -10 -1 2 -7 27 -15z"/>
<path d="M1823 1340 c0 -36 2 -50 4 -32 2 17 2 47 0 65 -2 17 -4 3 -4 -33z"/>
<path d="M1907 1288 l1 -83 38 3 c79 7 137 61 115 108 -13 30 -66 54 -118 54
l-38 0 2 -82z m107 26 c12 -12 13 -20 5 -35 -11 -22 -47 -39 -66 -32 -13 5
-18 65 -6 76 12 13 51 7 67 -9z"/>
<path d="M2134 1258 c-4 -13 -20 -35 -36 -50 -17 -16 -26 -28 -20 -28 14 0 72
68 72 85 0 22 -8 18 -16 -7z"/>
<path d="M1863 1025 c0 -38 2 -53 4 -32 2 20 2 52 0 70 -2 17 -4 1 -4 -38z"/>
<path d="M1904 1004 l1 -89 68 1 c69 1 106 16 131 56 30 49 -40 106 -143 115
l-59 6 2 -89z m132 30 c56 -27 41 -68 -32 -84 -53 -12 -64 -4 -64 44 0 24 3
46 7 49 11 12 54 8 89 -9z"/>
<path d="M2186 1029 c4 -13 8 -34 9 -46 0 -12 4 -18 9 -13 10 10 -2 67 -16 76
-7 4 -7 -2 -2 -17z"/>
<path d="M2147 890 c-19 -16 -37 -27 -41 -23 -3 3 -6 1 -6 -5 0 -7 4 -12 8
-12 11 0 90 69 80 70 -4 0 -23 -13 -41 -30z"/>
<path d="M823 2603 c-10 -15 -30 -69 -45 -121 -15 -52 -29 -97 -32 -100 -8 -8
-76 31 -76 43 0 6 12 20 28 32 15 11 33 32 41 46 13 24 12 29 -4 47 -27 30
-45 25 -116 -29 -79 -60 -103 -97 -86 -131 15 -29 127 -90 167 -90 19 0 33 -8
44 -25 20 -30 46 -32 70 -6 9 10 29 65 44 122 15 56 32 104 38 106 6 2 25 -10
43 -26 l32 -30 -36 -36 c-38 -40 -41 -51 -21 -77 26 -35 63 -20 149 61 55 51
61 66 40 97 -19 29 -130 84 -169 84 -14 0 -28 9 -35 23 -24 45 -51 48 -76 10z
m47 -21 c0 -16 -16 -86 -35 -156 -19 -71 -35 -134 -35 -142 0 -18 -29 -18 -36
0 -5 12 69 294 83 319 10 17 23 5 23 -21z m-150 -55 c0 -7 -28 -34 -62 -61
l-61 -49 59 -30 c73 -36 71 -34 53 -52 -12 -12 -24 -9 -83 24 -39 20 -71 41
-73 47 -4 14 6 24 80 87 64 54 87 63 87 34z m290 -15 c41 -20 76 -44 77 -52 1
-8 -27 -39 -63 -68 -77 -63 -94 -71 -94 -46 0 11 24 38 57 63 l57 44 -62 31
c-41 20 -62 36 -62 48 0 24 3 23 90 -20z"/>
<path d="M2421 2538 c-33 -34 -39 -56 -19 -76 19 -19 44 -14 77 14 32 27 40
61 19 82 -20 20 -44 14 -77 -20z m69 -1 c0 -20 -57 -70 -70 -62 -8 5 -1 18 21
41 35 36 49 42 49 21z"/>
<path d="M1137 2362 c-31 -34 -15 -82 26 -82 41 0 62 62 30 86 -24 18 -37 17
-56 -4z m53 -27 c0 -7 -7 -18 -15 -25 -26 -22 -49 12 -24 37 14 14 39 6 39
-12z"/>
<path d="M440 2304 c-48 -21 -68 -41 -97 -98 -22 -43 -24 -59 -20 -115 3 -36
7 -96 9 -134 4 -71 21 -104 69 -138 40 -30 71 -33 97 -9 29 27 25 38 -22 71
-71 48 -69 76 3 98 41 12 78 52 78 83 0 9 -10 29 -23 45 -19 24 -29 28 -73 27
-37 0 -51 3 -51 14 0 20 55 72 77 72 11 0 30 11 43 25 24 25 24 26 4 44 -28
28 -55 32 -94 15z m79 -23 c19 -12 3 -34 -22 -27 -52 13 -119 -64 -121 -139
-1 -24 2 -47 6 -50 4 -4 21 4 38 19 37 31 70 33 94 7 38 -42 -15 -98 -84 -88
l-40 5 0 -39 c0 -69 38 -119 90 -119 13 0 20 -5 17 -12 -6 -19 -65 -13 -89 9
-35 31 -49 71 -48 136 0 34 -2 89 -5 122 -5 51 -2 66 17 100 38 65 107 101
147 76z"/>
<path d="M442 2070 c-37 -23 -40 -36 -12 -45 21 -7 70 17 70 34 0 25 -27 30
-58 11z"/>
<path d="M2455 2230 c-18 -20 -18 -21 6 -44 35 -34 72 -40 100 -16 l24 20 -33
30 c-38 35 -71 38 -97 10z m60 -14 c35 -15 47 -36 21 -36 -29 0 -66 20 -66 35
0 19 2 19 45 1z"/>
<path d="M2422 2078 c-7 -7 -12 -18 -12 -24 0 -12 41 -46 84 -70 35 -19 30
-33 -12 -32 -81 1 -130 -34 -139 -101 -13 -97 66 -145 176 -106 l41 14 0 -35
c0 -42 -18 -80 -57 -116 -40 -38 -56 -39 -57 -4 -1 35 -28 56 -53 40 -21 -12
-70 -107 -79 -151 -13 -65 46 -80 136 -35 127 63 199 152 207 256 4 39 1 71
-7 85 -6 13 -13 54 -16 92 -6 102 -29 141 -109 179 -46 22 -86 25 -103 8z m71
-24 c80 -27 132 -111 109 -174 -7 -18 -4 -35 9 -65 55 -119 -19 -254 -182
-333 -105 -51 -113 -44 -63 64 41 90 39 88 53 80 6 -4 -1 -31 -19 -71 -16 -36
-27 -65 -24 -65 14 0 95 47 133 78 48 39 91 118 91 168 0 17 -5 46 -11 63
l-11 32 -27 -24 c-37 -35 -64 -47 -104 -47 -44 0 -75 26 -83 67 -5 27 -1 37
24 63 25 24 39 30 74 30 25 0 56 -8 76 -20 27 -17 33 -18 38 -5 18 46 -47 123
-118 140 -16 4 -28 13 -28 21 0 18 6 18 63 -2z"/>
<path d="M2440 1892 c-44 -14 -65 -63 -38 -90 28 -28 148 5 148 41 0 24 -80
59 -110 49z m47 -49 c5 -15 -36 -28 -49 -15 -6 6 -7 15 -3 22 9 14 47 9 52 -7z"/>
<path d="M412 1697 c-28 -30 -28 -42 3 -72 29 -30 35 -31 63 -5 27 26 28 54 2
80 -26 26 -42 25 -68 -3z m58 -22 c10 -12 10 -18 0 -30 -25 -30 -61 -7 -46 30
3 8 12 15 19 15 8 0 20 -7 27 -15z"/>
<path d="M396 1499 c-95 -83 -108 -185 -36 -269 16 -19 40 -55 52 -79 27 -53
60 -79 110 -87 50 -9 85 2 93 27 9 28 -8 45 -60 58 -48 12 -60 35 -25 46 32
10 82 56 95 89 23 55 -24 116 -90 116 -13 0 -44 -16 -69 -35 -34 -26 -48 -32
-52 -22 -9 25 15 66 53 90 60 38 69 53 48 77 -28 31 -77 26 -119 -11z m108 2
c4 -5 -14 -19 -39 -31 -81 -39 -115 -142 -64 -196 29 -31 35 -30 43 7 3 17 19
44 36 60 39 40 93 38 118 -3 15 -26 15 -29 -4 -55 -32 -42 -68 -65 -108 -66
-41 -1 -44 -9 -16 -54 19 -32 36 -40 94 -45 34 -3 46 -24 19 -32 -58 -18 -153
45 -153 101 0 18 -12 36 -39 60 -22 19 -42 46 -46 63 -13 61 40 160 99 186 37
16 53 17 60 5z"/>
<path d="M508 1330 c-27 -21 -55 -76 -44 -87 14 -14 90 22 106 50 14 26 14 29
-4 43 -25 18 -28 18 -58 -6z"/>
<path d="M1080 1486 c-44 -16 -58 -53 -61 -167 -1 -48 -7 -87 -13 -91 -17 -12
-94 -9 -101 3 -4 6 -7 51 -6 100 1 84 0 91 -25 116 -23 23 -31 25 -76 20 -32
-4 -60 -14 -74 -28 l-23 -21 2 -310 2 -310 24 -19 c31 -26 107 -25 141 0 23
18 25 27 30 138 l5 118 40 5 c71 10 75 3 75 -115 0 -94 2 -106 22 -125 33 -30
111 -28 143 5 14 13 25 32 25 42 1 10 2 149 3 310 2 281 1 293 -18 312 -27 26
-72 32 -115 17z m98 -348 l-3 -323 -53 -5 c-29 -3 -57 -3 -63 1 -6 4 -9 56 -7
139 l3 132 -65 -6 c-36 -3 -79 -6 -97 -6 l-32 0 5 -113 c3 -65 0 -125 -5 -140
-10 -25 -15 -27 -66 -27 l-55 0 -1 48 c-1 26 -1 168 -2 317 l-1 269 33 9 c18
4 47 7 65 5 l31 -3 -4 -122 -3 -123 96 0 96 0 1 58 c1 31 2 64 3 72 2 8 3 43
4 78 l2 62 60 0 60 0 -2 -322z"/>
<path d="M764 1316 c2 -37 6 -69 9 -72 3 -3 4 24 3 60 -2 36 -6 69 -9 72 -3 3
-4 -24 -3 -60z"/>
<path d="M970 1163 c-19 -3 -39 -8 -43 -12 -7 -8 95 4 118 13 12 5 -27 4 -75
-1z"/>
<path d="M1085 1005 c-4 -37 -5 -69 -2 -72 3 -2 8 25 12 62 4 36 5 68 2 71 -2
3 -8 -25 -12 -61z"/>
<path d="M1263 1454 c-14 -14 -23 -36 -24 -56 -6 -332 -2 -400 27 -478 32 -83
115 -149 192 -152 47 -2 122 11 122 21 0 4 11 13 23 18 29 13 92 106 101 148
22 105 32 191 30 265 -2 47 -3 113 -3 148 -1 53 -5 67 -26 87 -36 37 -102 35
-139 -4 l-28 -29 6 -119 c10 -178 -18 -335 -58 -329 -44 7 -59 83 -58 295 2
157 1 166 -20 188 -30 32 -112 30 -145 -3z m133 -194 c0 -205 11 -275 50 -311
20 -19 29 -21 52 -13 60 21 87 139 78 351 -3 90 -2 144 5 148 5 4 31 9 58 12
61 6 61 7 61 -194 0 -240 -29 -350 -113 -417 -52 -42 -143 -48 -202 -14 -49
29 -91 96 -105 167 -11 57 -14 443 -4 454 3 3 31 5 62 4 l57 -2 1 -185z"/>
<path d="M1323 1275 c0 -33 2 -45 4 -27 2 18 2 45 0 60 -2 15 -4 0 -4 -33z"/>
<path d="M1303 1150 c0 -36 2 -50 4 -32 2 17 2 47 0 65 -2 17 -4 3 -4 -33z"/>
<path d="M2592 1448 c-17 -17 -15 -42 6 -61 24 -22 35 -21 57 3 37 41 -24 97
-63 58z m54 -19 c10 -17 -23 -46 -37 -32 -7 7 -9 19 -6 27 7 18 33 21 43 5z"/>
<path d="M2405 1367 c-35 -20 -75 -54 -75 -65 0 -5 -6 -15 -14 -21 -10 -8 -14
-30 -13 -66 3 -59 27 -96 76 -113 80 -27 164 63 108 116 l-24 23 -31 -26 c-29
-25 -31 -25 -37 -6 -8 28 10 58 46 76 37 20 61 13 94 -26 20 -25 25 -41 25
-85 0 -101 -43 -160 -162 -224 -79 -42 -110 -81 -106 -134 3 -39 6 -42 58 -68
75 -37 83 -45 75 -77 -4 -14 -10 -28 -14 -31 -9 -5 -31 -45 -31 -54 0 -3 11
-13 24 -21 74 -49 154 114 96 195 -11 16 -41 36 -65 46 -25 9 -44 22 -42 28 2
6 32 27 68 46 126 69 186 156 193 281 3 56 -20 127 -52 163 -44 49 -147 71
-197 43z m145 -39 c69 -48 92 -149 56 -255 -22 -67 -78 -123 -163 -167 -75
-37 -108 -68 -100 -90 3 -8 31 -22 62 -31 71 -21 90 -48 86 -122 -1 -29 -48
-83 -72 -83 -26 0 -24 7 11 40 52 49 31 140 -32 140 -33 0 -88 37 -88 59 0 31
39 70 101 102 123 61 179 139 181 247 1 69 -20 115 -65 142 -40 25 -58 25
-105 1 -60 -31 -83 -109 -42 -146 27 -24 68 -13 72 20 4 34 22 37 26 4 2 -19
-4 -33 -24 -48 -37 -29 -60 -26 -96 9 -27 27 -30 36 -26 74 9 77 62 125 139
126 32 0 56 -7 79 -22z"/>
<path d="M472 967 c-33 -35 -55 -105 -56 -182 -1 -97 28 -149 104 -188 30 -16
66 -39 80 -51 73 -65 174 -59 304 19 77 46 142 68 179 59 l30 -6 -41 -37 c-22
-20 -45 -46 -51 -58 -16 -31 -17 -84 -2 -112 14 -25 67 -51 104 -51 39 0 102
53 123 104 11 25 24 48 31 50 7 3 38 -17 70 -44 66 -57 122 -76 191 -65 26 3
62 6 81 6 94 -3 225 73 219 127 -4 37 -30 49 -65 32 -15 -8 -31 -16 -35 -18
-5 -2 -8 10 -8 28 0 74 -55 125 -126 117 -84 -9 -131 -69 -121 -154 6 -59 -11
-57 -95 11 -37 30 -81 57 -98 61 -16 4 -49 23 -73 42 -23 20 -56 42 -74 49
-65 28 -158 11 -255 -46 -99 -58 -138 -72 -174 -66 -18 4 -36 11 -39 17 -4 5
3 30 15 55 19 39 21 49 10 75 -26 62 -103 64 -143 4 -23 -37 -32 -42 -42 -24
-13 20 -6 123 11 170 14 39 15 53 6 74 -14 31 -32 32 -60 2z m35 -49 c-50
-108 -40 -234 22 -268 33 -17 40 -12 39 30 0 49 24 80 62 80 59 0 64 -68 9
-114 -16 -14 -29 -27 -29 -30 0 -3 18 -18 40 -32 49 -32 105 -30 178 8 26 14
79 41 117 61 88 46 147 49 211 12 23 -14 46 -34 49 -45 4 -12 15 -20 29 -20
29 0 92 -35 161 -89 47 -37 65 -45 111 -49 60 -5 66 3 29 38 -29 27 -34 92
-10 126 35 51 128 56 159 9 24 -37 19 -69 -19 -119 -31 -41 -33 -46 -15 -46
29 0 90 33 119 64 26 28 51 34 51 13 0 -18 -46 -60 -90 -83 -20 -10 -60 -19
-95 -20 -33 -1 -81 -5 -106 -9 -64 -10 -106 6 -174 66 -53 46 -91 69 -116 69
-5 0 -9 -18 -9 -40 0 -76 -57 -140 -123 -140 -31 0 -77 39 -77 66 0 53 81 134
134 134 29 0 14 34 -24 52 -66 34 -141 19 -243 -46 -132 -85 -239 -87 -298 -7
-12 16 -26 28 -30 25 -17 -10 -79 29 -101 64 -34 55 -32 158 5 236 20 44 30
57 39 48 8 -8 7 -20 -5 -44z"/>
<path d="M618 729 c-17 -9 -35 -66 -24 -76 3 -4 17 4 31 17 37 35 32 81 -7 59z"/>
<path d="M1567 628 c-41 -32 -37 -102 8 -132 23 -15 25 -14 54 21 40 48 50 92
25 110 -23 16 -65 17 -87 1z m58 -38 c4 -6 -1 -22 -10 -36 -13 -20 -19 -23
-31 -13 -17 14 -18 31 -2 47 15 15 35 15 43 2z"/>
<path d="M1130 549 c-65 -39 -86 -82 -54 -113 24 -25 62 -19 95 13 24 24 29
38 29 75 0 54 -14 59 -70 25z m33 -35 c8 -8 -20 -51 -38 -58 -22 -8 -26 23 -5
44 21 21 32 24 43 14z"/>
<path d="M2085 760 c-12 -4 -27 -15 -34 -24 -7 -9 -27 -16 -43 -16 -44 0 -78
-40 -76 -88 1 -28 -5 -46 -20 -63 -30 -31 -28 -55 8 -91 17 -16 30 -38 30 -48
0 -10 11 -31 24 -47 19 -22 31 -27 60 -25 20 2 47 -4 60 -14 29 -18 62 -11 87
17 9 11 24 19 33 19 40 0 86 51 86 96 0 10 6 25 14 33 30 34 29 60 -3 92 -22
22 -31 40 -31 63 0 42 -26 66 -73 66 -20 0 -51 9 -69 19 -22 13 -40 16 -53 11z
m55 -55 c0 -21 30 -26 56 -8 24 15 26 15 47 -5 20 -20 20 -22 3 -41 -15 -16
-15 -22 -4 -40 7 -12 23 -21 35 -21 13 0 24 -6 24 -15 1 -8 2 -23 3 -32 1 -12
-7 -19 -26 -21 -33 -4 -45 -32 -22 -49 15 -11 16 -16 4 -38 -14 -26 -39 -32
-56 -15 -17 17 -44 0 -44 -26 0 -17 -7 -25 -25 -30 -30 -7 -36 -4 -38 25 -2
30 -27 35 -53 10 -18 -17 -26 -19 -43 -10 -23 13 -27 31 -10 48 20 20 1 53
-31 53 -28 0 -40 15 -40 51 0 13 7 19 24 19 32 0 44 44 20 71 -16 18 -16 20 6
44 23 25 24 25 44 6 26 -24 56 -11 56 24 0 17 6 25 23 27 25 4 47 -8 47 -27z"/>
<path d="M2085 608 c-28 -16 -35 -28 -35 -65 0 -57 65 -83 108 -43 31 29 29
73 -4 99 -30 24 -41 25 -69 9z m50 -59 c0 -17 -6 -24 -20 -24 -23 0 -33 34
-13 46 20 13 33 5 33 -22z"/>
<path d="M837 472 c-24 -27 -21 -59 8 -78 23 -15 27 -15 50 0 30 20 33 56 7
79 -24 22 -45 21 -65 -1z m61 -40 c-4 -22 -46 -28 -54 -8 -4 9 -1 23 6 31 16
19 53 1 48 -23z"/>
</g>
</svg>
